# xmcd
#
# Track frame offsets: 
#        187
#        12085
#        31792
#        55985
#        72987
#        92290
#        108705
#        129762
#        144665
#        163162
#
# Disc length: 2453 seconds
#
# Revision: 0
# Processed by: cddbd v1.5.2PL0 Copyright (c) Steve Scherf et al.
# Submitted via: ExactAudioCopy v1.0b3
#
DISCID=7d09930a
DTITLE=Akira Ito - Hopi Prophecies
DYEAR=1986
DGENRE=Electronic
TTITLE0=Stone Tablet
TTITLE1=Four Corners
TTITLE2=Biginning of Life
TTITLE3=Nagasaki
TTITLE4=Hiroshima
TTITLE5=Oraibi
TTITLE6=Red Rock
TTITLE7=The Day of Purification
TTITLE8=Third World
TTITLE9=Song of Creation
EXTD=
EXTT0=
EXTT1=
EXTT2=
EXTT3=
EXTT4=
EXTT5=
EXTT6=
EXTT7=
EXTT8=
EXTT9=
PLAYORDER=
